<svg width="68" height="69" viewBox="0 0 68 69" fill="none" xmlns="http://www.w3.org/2000/svg">
<g clip-path="url(#clip0_855_42331)">
<path d="M9.20825 29.0084C9.25075 31.3459 9.43492 33.5984 9.74659 35.9217C11.2199 45.8384 16.7874 57.0725 32.0449 64.9492C33.2774 65.5867 34.7366 65.5867 35.9691 64.9492C51.2266 57.0725 56.7941 45.8384 58.2674 35.9217C58.5791 33.5984 58.7632 31.3459 58.8057 29.0084V15.3092C58.8057 13.1559 57.4599 11.2434 55.4482 10.5209L35.7566 3.39504C34.6374 2.98421 33.4049 2.98421 32.2858 3.39504L12.5658 10.5209C10.5541 11.2434 9.20825 13.17 9.20825 15.3092V29.0084Z" fill="#1967D2"></path>
<mask id="mask0_855_42331" style="mask-type:alpha" maskUnits="userSpaceOnUse" x="9" y="3" width="50" height="63">
<path d="M9.20825 29.0084C9.25075 31.3459 9.43492 33.5984 9.74659 35.9217C11.2199 45.8384 16.7874 57.0725 32.0449 64.9492C33.2774 65.5867 34.7366 65.5867 35.9691 64.9492C51.2266 57.0725 56.7941 45.8384 58.2674 35.9217C58.5791 33.5984 58.7632 31.3459 58.8057 29.0084V15.3092C58.8057 13.1559 57.4599 11.2434 55.4482 10.5209L35.7566 3.39504C34.6374 2.98421 33.4049 2.98421 32.2858 3.39504L12.5658 10.5209C10.5541 11.2434 9.20825 13.17 9.20825 15.3092V29.0084Z" fill="#1967D2"></path>
</mask>
<g mask="url(#mask0_855_42331)">
<path d="M33.9999 2.375H2.83325V66.125H33.9999V2.375Z" fill="#185ABC"></path>
</g>
<path fill-rule="evenodd" clip-rule="evenodd" d="M53.769 56.6726L42.0336 45.0676C39.8421 46.6271 37.2002 47.5789 34.3124 47.5789C26.9599 47.5789 21 41.6853 21 34.4145C21 27.1436 26.9599 21.25 34.3124 21.25C41.6649 21.25 47.6248 27.1436 47.6248 34.4145C47.6248 37.2701 46.6622 39.8828 45.0852 42.0499L56.8206 53.6549L53.769 56.6726ZM34.3125 25.3004C29.2128 25.3004 25.0962 29.3713 25.0962 34.4143C25.0962 39.4573 29.2128 43.5281 34.3125 43.5281C39.4121 43.5281 43.5287 39.4573 43.5287 34.4143C43.5287 29.3713 39.4121 25.3004 34.3125 25.3004Z" fill="#E8F0FE"></path>
<mask id="mask1_855_42331" style="mask-type:luminance" maskUnits="userSpaceOnUse" x="21" y="21" width="36" height="36">
<path fill-rule="evenodd" clip-rule="evenodd" d="M53.769 56.6726L42.0336 45.0676C39.8421 46.6271 37.2002 47.5789 34.3124 47.5789C26.9599 47.5789 21 41.6853 21 34.4145C21 27.1436 26.9599 21.25 34.3124 21.25C41.6649 21.25 47.6248 27.1436 47.6248 34.4145C47.6248 37.2701 46.6622 39.8828 45.0852 42.0499L56.8206 53.6549L53.769 56.6726ZM34.3125 25.3004C29.2128 25.3004 25.0962 29.3713 25.0962 34.4143C25.0962 39.4573 29.2128 43.5281 34.3125 43.5281C39.4121 43.5281 43.5287 39.4573 43.5287 34.4143C43.5287 29.3713 39.4121 25.3004 34.3125 25.3004Z" fill="white"></path>
</mask>
<g mask="url(#mask1_855_42331)">
<rect x="16" y="17.25" width="18" height="37" fill="#AECBFA"></rect>
</g>
</g>
<defs>
<clipPath id="clip0_855_42331">
<rect width="68" height="68" fill="white" transform="translate(0 0.25)"></rect>
</clipPath>
</defs>
</svg>