<svg width="75" height="24" viewBox="0 0 75 24" fill="none" xmlns="http://www.w3.org/2000/svg">
<g id="Google logo">
<path id="Fill 1" fill-rule="evenodd" clip-rule="evenodd" d="M9.48757 18.6185C4.33344 18.6185 0 14.4414 0 9.30924C0 4.17811 4.33344 0 9.48757 0C12.3394 0 14.3685 1.11203 15.8973 2.56506L14.0952 4.35911C13.0003 3.33708 11.5177 2.54306 9.48757 2.54306C5.72469 2.54306 2.78248 5.56314 2.78248 9.30924C2.78248 13.0553 5.72469 16.0754 9.48757 16.0754C11.9285 16.0754 13.3188 15.0994 14.2088 14.2134C14.938 13.4873 15.4182 12.4423 15.6 11.0123H9.48757V8.46921H18.0862C18.1776 8.92323 18.2238 9.46824 18.2238 10.0583C18.2238 11.9663 17.6984 14.3274 16.0108 16.0074C14.3685 17.7104 12.2701 18.6185 9.48757 18.6185Z" fill="#5F6368"/>
<path id="Fill 3" fill-rule="evenodd" clip-rule="evenodd" d="M28.9244 12.6245C28.9244 10.4675 27.3795 8.99143 25.5874 8.99143C23.7964 8.99143 22.2515 10.4675 22.2515 12.6245C22.2515 14.7586 23.7964 16.2576 25.5874 16.2576C27.3795 16.2576 28.9244 14.7586 28.9244 12.6245ZM31.5221 12.6245C31.5221 16.0756 28.8571 18.6187 25.5874 18.6187C22.3188 18.6187 19.6538 16.0756 19.6538 12.6245C19.6538 9.15044 22.3188 6.63037 25.5874 6.63037C28.8571 6.63037 31.5221 9.15044 31.5221 12.6245Z" fill="#5F6368"/>
<path id="Fill 5" fill-rule="evenodd" clip-rule="evenodd" d="M42.2281 12.6245C42.2281 10.4675 40.6832 8.99143 38.8911 8.99143C37.1001 8.99143 35.5542 10.4675 35.5542 12.6245C35.5542 14.7586 37.1001 16.2576 38.8911 16.2576C40.6832 16.2576 42.2281 14.7586 42.2281 12.6245ZM44.8258 12.6245C44.8258 16.0756 42.1608 18.6187 38.8911 18.6187C35.6215 18.6187 32.9575 16.0756 32.9575 12.6245C32.9575 9.15044 35.6215 6.63037 38.8911 6.63037C42.1608 6.63037 44.8258 9.15044 44.8258 12.6245Z" fill="#5F6368"/>
<path id="Fill 7" fill-rule="evenodd" clip-rule="evenodd" d="M55.4707 12.6465C55.4707 10.5355 54.0563 8.99045 52.2552 8.99045C50.4311 8.99045 48.9022 10.5355 48.9022 12.6465C48.9022 14.7356 50.4311 16.2566 52.2552 16.2566C54.0563 16.2566 55.4707 14.7356 55.4707 12.6465ZM57.7971 6.9924V17.7557C57.7971 22.1828 55.1743 23.9998 52.0724 23.9998C49.1533 23.9998 47.3974 22.0468 46.7355 20.4577L49.0388 19.5037C49.4496 20.4797 50.4531 21.6378 52.0724 21.6378C54.0563 21.6378 55.2888 20.4127 55.2888 18.1187V17.2557H55.1964C54.6038 17.9827 53.4637 18.6177 52.0272 18.6177C49.0167 18.6177 46.2573 16.0076 46.2573 12.6465C46.2573 9.26346 49.0167 6.62939 52.0272 6.62939C53.4637 6.62939 54.6038 7.26541 55.1964 7.96943H55.2888V6.9924H57.7971Z" fill="#5F6368"/>
<path id="Fill 9" fill-rule="evenodd" clip-rule="evenodd" d="M59.7876 18.2552H62.4335V0.635742H59.7876V18.2552Z" fill="#5F6368"/>
<path id="Fill 11" fill-rule="evenodd" clip-rule="evenodd" d="M66.5159 12.4425L71.8991 10.2175C71.6017 9.46847 70.7128 8.94545 69.6641 8.94545C68.318 8.94545 66.4486 10.1265 66.5159 12.4425ZM72.8333 14.5996L74.8865 15.9616C74.2255 16.9387 72.6284 18.6187 69.869 18.6187C66.4486 18.6187 63.9775 15.9846 63.9775 12.6245C63.9775 9.05946 66.4707 6.62939 69.5726 6.62939C72.6967 6.62939 74.2255 9.10446 74.7268 10.4445L75 11.1255L66.9489 14.4406C67.5656 15.6436 68.5229 16.2566 69.869 16.2566C71.214 16.2566 72.1492 15.5986 72.8333 14.5996Z" fill="#5F6368"/>
</g>
</svg>
