<svg width="146" height="35" viewBox="0 0 146 35" fill="none" xmlns="http://www.w3.org/2000/svg">
<g clip-path="url(#clip0_84345_1269)">
<path fill-rule="evenodd" clip-rule="evenodd" d="M66.2184 17.9426L71.5774 15.7176C71.2814 14.9686 70.3964 14.4456 69.3524 14.4456C68.0124 14.4456 66.1514 15.6266 66.2184 17.9426ZM72.5074 20.0996L74.5514 21.4616C73.8934 22.4386 72.3034 24.1186 69.5564 24.1186C66.1514 24.1186 63.6914 21.4846 63.6914 18.1246C63.6914 14.5596 66.1734 12.1296 69.2614 12.1296C72.3714 12.1296 73.8934 14.6046 74.3924 15.9446L74.6644 16.6256L66.6494 19.9406C67.2634 21.1436 68.2164 21.7566 69.5564 21.7566C70.8954 21.7566 71.8264 21.0986 72.5074 20.0996Z" fill="#EA4335"/>
<path fill-rule="evenodd" clip-rule="evenodd" d="M59.5195 23.755H62.1535V6.13599H59.5195V23.755Z" fill="#34A853"/>
<path fill-rule="evenodd" clip-rule="evenodd" d="M55.2208 18.1469C55.2208 16.0359 53.8128 14.4909 52.0198 14.4909C50.2038 14.4909 48.6818 16.0359 48.6818 18.1469C48.6818 20.2359 50.2038 21.7569 52.0198 21.7569C53.8128 21.7569 55.2208 20.2359 55.2208 18.1469ZM57.5368 12.4929V23.2559C57.5368 27.6829 54.9258 29.4999 51.8378 29.4999C48.9318 29.4999 47.1838 27.5469 46.5248 25.9579L48.8178 25.0039C49.2268 25.9799 50.2258 27.1379 51.8378 27.1379C53.8128 27.1379 55.0398 25.9129 55.0398 23.6189V22.7559H54.9478C54.3578 23.4829 53.2228 24.1179 51.7928 24.1179C48.7958 24.1179 46.0488 21.5079 46.0488 18.1469C46.0488 14.7639 48.7958 12.1299 51.7928 12.1299C53.2228 12.1299 54.3578 12.7659 54.9478 13.4699H55.0398V12.4929H57.5368Z" fill="#4285F4"/>
<path fill-rule="evenodd" clip-rule="evenodd" d="M42.0395 18.1244C42.0395 15.9674 40.5015 14.4914 38.7175 14.4914C36.9345 14.4914 35.3955 15.9674 35.3955 18.1244C35.3955 20.2584 36.9345 21.7574 38.7175 21.7574C40.5015 21.7574 42.0395 20.2584 42.0395 18.1244ZM44.6255 18.1244C44.6255 21.5754 41.9725 24.1184 38.7175 24.1184C35.4625 24.1184 32.8105 21.5754 32.8105 18.1244C32.8105 14.6504 35.4625 12.1304 38.7175 12.1304C41.9725 12.1304 44.6255 14.6504 44.6255 18.1244Z" fill="#FBBC05"/>
<path fill-rule="evenodd" clip-rule="evenodd" d="M28.7935 18.1244C28.7935 15.9674 27.2555 14.4914 25.4715 14.4914C23.6885 14.4914 22.1505 15.9674 22.1505 18.1244C22.1505 20.2584 23.6885 21.7574 25.4715 21.7574C27.2555 21.7574 28.7935 20.2584 28.7935 18.1244ZM31.3795 18.1244C31.3795 21.5754 28.7265 24.1184 25.4715 24.1184C22.2175 24.1184 19.5645 21.5754 19.5645 18.1244C19.5645 14.6504 22.2175 12.1304 25.4715 12.1304C28.7265 12.1304 31.3795 14.6504 31.3795 18.1244Z" fill="#EA4335"/>
<path fill-rule="evenodd" clip-rule="evenodd" d="M9.445 24.1185C4.314 24.1185 0 19.9415 0 14.8095C0 9.67849 4.314 5.50049 9.445 5.50049C12.284 5.50049 14.304 6.61249 15.826 8.06549L14.032 9.85949C12.942 8.83749 11.466 8.04349 9.445 8.04349C5.699 8.04349 2.77 11.0635 2.77 14.8095C2.77 18.5555 5.699 21.5755 9.445 21.5755C11.875 21.5755 13.259 20.5995 14.145 19.7135C14.871 18.9875 15.349 17.9425 15.53 16.5125H9.445V13.9695H18.005C18.096 14.4235 18.142 14.9685 18.142 15.5585C18.142 17.4665 17.619 19.8275 15.939 21.5075C14.304 23.2105 12.215 24.1185 9.445 24.1185Z" fill="#4285F4"/>
<path d="M86.1602 24.852C85.3975 24.852 84.6421 24.6907 83.8941 24.368C83.1461 24.0453 82.4862 23.5687 81.9142 22.938C81.3422 22.3073 80.9242 21.5227 80.6602 20.584L82.4422 19.858C82.6915 20.7673 83.1462 21.53 83.8062 22.146C84.4662 22.762 85.2655 23.07 86.2042 23.07C86.7909 23.07 87.3262 22.9673 87.8102 22.762C88.3089 22.542 88.7049 22.2267 88.9982 21.816C89.3062 21.4053 89.4602 20.9067 89.4602 20.32C89.4602 19.792 89.3282 19.3447 89.0642 18.978C88.8149 18.6113 88.4335 18.2887 87.9202 18.01C87.4069 17.7167 86.7762 17.438 86.0282 17.174L85.0382 16.822C84.5982 16.6607 84.1509 16.47 83.6962 16.25C83.2562 16.0153 82.8454 15.7367 82.4641 15.414C82.0974 15.0767 81.8042 14.6807 81.5842 14.226C81.3642 13.7567 81.2542 13.2067 81.2542 12.576C81.2542 11.8133 81.4595 11.1167 81.8702 10.486C82.2809 9.8553 82.8455 9.3493 83.5642 8.968C84.2829 8.5867 85.1115 8.396 86.0502 8.396C87.0329 8.396 87.8542 8.5793 88.5142 8.946C89.1889 9.298 89.7169 9.7233 90.0982 10.222C90.4942 10.706 90.7582 11.1533 90.8902 11.564L89.1522 12.312C89.0642 12.004 88.8955 11.6887 88.6462 11.366C88.3969 11.0287 88.0595 10.75 87.6342 10.53C87.2235 10.2953 86.7029 10.178 86.0722 10.178C85.5589 10.178 85.0749 10.2807 84.6202 10.486C84.1802 10.6913 83.8209 10.9773 83.5422 11.344C83.2782 11.696 83.1462 12.1067 83.1462 12.576C83.1462 13.236 83.4102 13.7567 83.9382 14.138C84.4662 14.5193 85.1775 14.864 86.0722 15.172L87.1062 15.524C87.5755 15.6853 88.0522 15.8833 88.5362 16.118C89.0349 16.3527 89.4968 16.6533 89.9221 17.02C90.3471 17.3867 90.6922 17.8413 90.9562 18.384C91.2202 18.912 91.3521 19.55 91.3521 20.298C91.3521 21.1047 91.1911 21.8013 90.8681 22.388C90.5601 22.96 90.1492 23.4293 89.6362 23.796C89.1229 24.1627 88.5582 24.4267 87.9422 24.588C87.3409 24.764 86.7469 24.852 86.1602 24.852ZM98.4342 24.852C97.3482 24.852 96.3802 24.5953 95.5302 24.082C94.6942 23.5687 94.0342 22.8647 93.5502 21.97C93.0802 21.0753 92.8462 20.056 92.8462 18.912C92.8462 17.8413 93.0661 16.8513 93.5061 15.942C93.9601 15.0327 94.5912 14.3067 95.3982 13.764C96.2192 13.2067 97.1802 12.928 98.2802 12.928C99.3942 12.928 100.348 13.1773 101.14 13.676C101.946 14.16 102.562 14.8347 102.988 15.7C103.428 16.5653 103.648 17.5553 103.648 18.67C103.648 18.7727 103.64 18.8753 103.626 18.978C103.626 19.0807 103.618 19.1687 103.604 19.242H94.7162C94.7602 20.0487 94.9432 20.7307 95.2662 21.288C95.6322 21.9187 96.1022 22.388 96.6742 22.696C97.2602 23.004 97.8692 23.158 98.5002 23.158C99.3212 23.158 99.9962 22.9673 100.524 22.586C101.066 22.19 101.499 21.706 101.822 21.134L103.406 21.904C102.966 22.7547 102.335 23.4587 101.514 24.016C100.692 24.5733 99.6662 24.852 98.4342 24.852ZM94.8261 17.702H101.668C101.653 17.394 101.58 17.064 101.448 16.712C101.33 16.3453 101.132 16.008 100.854 15.7C100.59 15.3773 100.245 15.1207 99.8202 14.93C99.4092 14.7247 98.8962 14.622 98.2802 14.622C97.5462 14.622 96.9081 14.8127 96.3661 15.194C95.8381 15.5607 95.4342 16.0667 95.1562 16.712C95.0092 17.02 94.8991 17.35 94.8261 17.702ZM109.229 24.852C108.393 24.852 107.66 24.6907 107.029 24.368C106.399 24.0453 105.9 23.6053 105.533 23.048C105.181 22.476 105.005 21.8307 105.005 21.112C105.005 20.2907 105.218 19.6013 105.643 19.044C106.069 18.472 106.641 18.0467 107.359 17.768C108.078 17.4747 108.87 17.328 109.735 17.328C110.234 17.328 110.696 17.372 111.121 17.46C111.547 17.5333 111.913 17.6287 112.221 17.746C112.544 17.8487 112.786 17.9513 112.947 18.054V17.372C112.947 16.5213 112.647 15.8467 112.045 15.348C111.444 14.8493 110.711 14.6 109.845 14.6C109.229 14.6 108.65 14.7393 108.107 15.018C107.579 15.282 107.161 15.656 106.853 16.14L105.445 15.084C105.739 14.644 106.105 14.2627 106.545 13.94C106.985 13.6173 107.484 13.368 108.041 13.192C108.613 13.016 109.215 12.928 109.845 12.928C111.371 12.928 112.566 13.3313 113.431 14.138C114.297 14.9447 114.729 16.03 114.729 17.394V24.5H112.947V22.894H112.859C112.669 23.2167 112.397 23.532 112.045 23.84C111.693 24.1333 111.275 24.3753 110.791 24.566C110.322 24.7567 109.801 24.852 109.229 24.852ZM109.405 23.202C110.051 23.202 110.637 23.0407 111.165 22.718C111.708 22.3953 112.141 21.9627 112.463 21.42C112.786 20.8773 112.947 20.2833 112.947 19.638C112.61 19.4033 112.185 19.2127 111.671 19.066C111.173 18.9193 110.623 18.846 110.021 18.846C108.951 18.846 108.166 19.066 107.667 19.506C107.169 19.946 106.919 20.4887 106.919 21.134C106.919 21.75 107.154 22.2487 107.623 22.63C108.093 23.0113 108.687 23.202 109.405 23.202ZM117.031 24.5V13.28H118.813V15.084H118.901C119.048 14.6587 119.29 14.292 119.627 13.984C119.979 13.6613 120.375 13.412 120.815 13.236C121.27 13.0453 121.717 12.95 122.157 12.95C122.494 12.95 122.758 12.972 122.949 13.016C123.14 13.0453 123.316 13.0967 123.477 13.17V15.194C123.242 15.0767 122.986 14.9887 122.707 14.93C122.443 14.8713 122.172 14.842 121.893 14.842C121.35 14.842 120.852 14.996 120.397 15.304C119.942 15.612 119.576 16.0227 119.297 16.536C119.033 17.0493 118.901 17.614 118.901 18.23V24.5H117.031ZM129.397 24.852C128.297 24.852 127.314 24.5953 126.449 24.082C125.598 23.554 124.931 22.8427 124.447 21.948C123.963 21.0387 123.721 20.0193 123.721 18.89C123.721 17.746 123.963 16.7267 124.447 15.832C124.931 14.9373 125.598 14.2333 126.449 13.72C127.314 13.192 128.297 12.928 129.397 12.928C130.658 12.928 131.692 13.2213 132.499 13.808C133.32 14.38 133.9 15.1207 134.237 16.03L132.543 16.734C132.264 16.0447 131.846 15.524 131.289 15.172C130.746 14.8053 130.086 14.622 129.309 14.622C128.649 14.622 128.033 14.798 127.461 15.15C126.904 15.502 126.449 16.0007 126.097 16.646C125.745 17.2767 125.569 18.0247 125.569 18.89C125.569 19.7407 125.745 20.4887 126.097 21.134C126.449 21.7793 126.904 22.278 127.461 22.63C128.033 22.982 128.649 23.158 129.309 23.158C130.101 23.158 130.783 22.9747 131.355 22.608C131.927 22.2413 132.352 21.7207 132.631 21.046L134.303 21.75C133.936 22.6153 133.342 23.3487 132.521 23.95C131.7 24.5513 130.658 24.852 129.397 24.852ZM136.025 24.5V8.748H137.895V13.39L137.807 14.93H137.895C138.188 14.3727 138.665 13.9033 139.325 13.522C139.999 13.126 140.74 12.928 141.547 12.928C142.5 12.928 143.285 13.1187 143.901 13.5C144.517 13.8813 144.979 14.402 145.287 15.062C145.595 15.7073 145.749 16.4553 145.749 17.306V24.5H143.879V17.592C143.879 16.8733 143.747 16.3013 143.483 15.876C143.233 15.436 142.896 15.1207 142.471 14.93C142.06 14.7247 141.605 14.622 141.107 14.622C140.491 14.622 139.941 14.798 139.457 15.15C138.973 15.502 138.591 15.9567 138.313 16.514C138.034 17.0713 137.895 17.6507 137.895 18.252V24.5H136.025Z" fill="#5F6368"/>
</g>
<defs>
<clipPath id="clip0_84345_1269">
<rect width="146" height="24" fill="white" transform="translate(0 5.5)"/>
</clipPath>
</defs>
</svg>
